<?xml version="1.0" encoding="UTF-8"?>
<svg width="383px" height="51px" viewBox="0 0 383 51" version="1.1" xmlns="http://www.w3.org/2000/svg" xmlns:xlink="http://www.w3.org/1999/xlink">
    <!-- Generator: Sketch 45.2 (43514) - http://www.bohemiancoding.com/sketch -->
    <title>DCEU17_logo_simple white v2@3x</title>
    <desc>Created with Sketch.</desc>
    <defs></defs>
    <g id="Page-1" stroke="none" stroke-width="1" fill="none" fill-rule="evenodd">
        <g id="dockercon-EU-2017-homepage" transform="translate(-44.000000, -27.000000)">
            <g id="DCEU17_logo_simple-white-v2" transform="translate(44.000000, 27.000000)">
                <g id="Layer_2">
                    <g>
                        <g id="Layer_1-2">
                            <path d="M344.865869,47.7583429 L344.865869,12.0787429 C344.313199,12.2710857 343.728645,12.4848 343.112205,12.7198857 C342.583101,12.9436163 342.017331,13.066802 341.443568,13.0832 C340.665289,13.1079567 339.912741,12.8014303 339.371057,12.2390286 C338.822038,11.6672258 338.526798,10.896222 338.552681,10.1018857 C338.55177,9.52037246 338.721864,8.95156569 339.041581,8.46697143 C339.391429,7.95163819 339.877264,7.54458698 340.444511,7.29154286 L346.821469,5.1544 C347.138492,5.0230511 347.477651,4.95412706 347.820526,4.95137143 C348.604698,4.92939973 349.360143,5.24879111 349.893037,5.8276 C350.435923,6.40331497 350.730137,7.17163939 350.711413,7.96474286 L350.711413,47.7583429 C350.732587,48.5580095 350.425014,49.3310984 349.861152,49.8954857 C349.324281,50.4685606 348.571519,50.7868181 347.788641,50.7717143 C347.016285,50.7804179 346.275826,50.4624707 345.748015,49.8954857 C345.172446,49.3365577 344.853051,48.5627714 344.865869,47.7583429 Z" id="Shape" fill="#00ACC8" fill-rule="nonzero"></path>
                            <path d="M358.586956,10.8712571 L374.784428,10.8712571 L371.192075,17.4857143 L377.855996,17.4857143 L382.181699,9.47142857 C382.450733,8.97920604 382.600057,8.42994566 382.617458,7.86857143 C382.621598,7.46468352 382.541964,7.06436163 382.383636,6.69314286 C382.234318,6.34019246 382.021766,6.01783077 381.756569,5.74211429 C381.493956,5.47340065 381.184034,5.25600734 380.842538,5.10097143 C380.485731,4.9369357 380.097648,4.8530652 379.705314,4.8552 L358.586956,4.8552 C357.802784,4.83322831 357.047339,5.15261968 356.514445,5.73142857 C355.971559,6.30714354 355.677344,7.07546796 355.696068,7.86857143 C355.670186,8.66290769 355.965426,9.4339115 356.514445,10.0057143 C357.052411,10.5759786 357.805447,10.8904691 358.586956,10.8712571 L358.586956,10.8712571 Z" id="Shape" fill="#00ACC8" fill-rule="nonzero"></path>
                            <path d="M360.298106,37.6924 L355.866121,45.8990286 C355.532134,46.462209 355.349042,47.1028118 355.334708,47.7583429 C355.313534,48.5580095 355.621106,49.3310984 356.184969,49.8954857 C356.712006,50.4635806 357.452977,50.7817475 358.225595,50.7717143 C359.027689,50.7952734 359.801435,50.4724332 360.351248,49.8848 C360.572417,49.657332 360.758681,49.398034 360.903917,49.1154286 L367.036425,37.7351429 L360.298106,37.6924 Z" id="Shape" fill="#00ACC8" fill-rule="nonzero"></path>
                            <path d="M361.297163,33.7921143 C361.172287,33.6725906 361.102906,33.5059493 361.105854,33.3326286 L361.105854,21.6531429 C361.102906,21.4798221 361.172287,21.3131808 361.297163,21.1936571 C361.419245,21.07415 361.583819,21.0087341 361.754178,21.012 L369.51281,21.012 C369.683386,21.0075138 369.848415,21.0731103 369.969825,21.1936571 C370.089145,21.3117297 370.154547,21.474183 370.150506,21.6424571 C370.154164,21.8075291 370.088589,21.9665344 369.969825,22.0805714 C369.845421,22.1951844 369.681473,22.2565178 369.51281,22.2515429 L362.423759,22.2515429 L362.423759,26.8357143 L367.599723,26.8357143 C367.770299,26.831228 367.935328,26.8968246 368.056738,27.0173714 C368.177159,27.134701 368.242765,27.2976608 368.237418,27.4661714 C368.241402,27.6365861 368.171597,27.8003442 368.04611,27.9149714 C367.924028,28.0344786 367.759454,28.0998945 367.589094,28.0966286 L362.423759,28.0966286 L362.423759,32.7342286 L369.534067,32.7342286 C369.70273,32.7292536 369.866677,32.7905871 369.991082,32.9052 C370.108757,33.0199837 370.174126,33.1784891 370.171762,33.3433143 C370.175803,33.5115885 370.110402,33.6740418 369.991082,33.7921143 C369.869671,33.9126611 369.704643,33.9782577 369.534067,33.9737714 L361.775435,33.9737714 C361.597373,33.9856758 361.422919,33.9194145 361.297163,33.7921143 L361.297163,33.7921143 Z" id="Shape" fill="#FFFFFF" fill-rule="nonzero"></path>
                            <path d="M375.01825,33.6638857 C374.26913,33.306043 373.635538,32.7430979 373.190189,32.0396571 C372.751524,31.335999 372.526238,30.5191019 372.541865,29.6888 L372.541865,21.6531429 C372.535869,21.4784889 372.602247,21.3091683 372.725156,21.1855957 C372.848064,21.0620232 373.016474,20.9952863 373.190189,21.0013143 C373.3642,20.9951384 373.533155,21.0607695 373.657832,21.1829714 C373.777731,21.3050381 373.842975,21.4709588 373.838513,21.6424571 L373.838513,29.6888 C373.830316,30.2980391 374.000321,30.8962756 374.327413,31.4092 C374.664035,31.919966 375.134961,32.3268562 375.687831,32.5846286 C376.313376,32.8765074 376.996396,33.0226165 377.685944,33.0120571 C378.365276,33.0229894 379.038013,32.8767464 379.652173,32.5846286 C380.201144,32.3252128 380.66823,31.9184629 381.001962,31.4092 C381.330214,30.8968034 381.500322,30.2982075 381.490862,29.6888 L381.490862,21.6531429 C381.484866,21.4784889 381.551245,21.3091683 381.674153,21.1855957 C381.797061,21.0620232 381.965471,20.9952863 382.139186,21.0013143 C382.313197,20.9951384 382.482152,21.0607695 382.60683,21.1829714 C382.726728,21.3050381 382.791972,21.4709588 382.78751,21.6424571 L382.78751,29.6888 C382.79996,30.5201782 382.570959,31.3371572 382.128558,32.0396571 C381.687661,32.7389693 381.062111,33.3013078 380.321753,33.6638857 C379.504543,34.0637745 378.605335,34.2650853 377.696572,34.2516 C376.770475,34.2678943 375.853377,34.0666519 375.01825,33.6638857 L375.01825,33.6638857 Z" id="Shape" fill="#FFFFFF" fill-rule="nonzero"></path>
                            <path d="M312.332757,15.3485714 C314.5553,13.6279126 317.323738,12.7773228 320.123273,12.9549714 C321.931601,12.9411757 323.723078,13.3050467 325.384263,14.0235429 C327.015562,14.7265006 328.503683,15.7263592 329.773736,16.9728 C331.049107,18.2317513 332.070437,19.7266714 332.781534,21.3753143 C333.500419,23.0629178 333.862358,24.8823947 333.84436,26.7181714 L333.84436,39.8616 C333.859137,40.6046054 333.566633,41.3204705 333.036612,41.8384571 C332.531228,42.3663846 331.830992,42.6603715 331.102269,42.6505714 C330.367645,42.6563195 329.66145,42.3654543 329.141977,41.8431734 C328.622504,41.3208925 328.333203,40.61088 328.33892,39.8722857 L328.33892,26.8036571 C328.344387,25.7005406 328.119914,24.6085099 327.679968,23.5979429 C326.829138,21.6123799 325.254755,20.0294866 323.279867,19.1740571 C322.274733,18.7317331 321.188574,18.5060468 320.091388,18.5115429 C318.995231,18.5054863 317.909673,18.7274097 316.90291,19.1633714 C314.912189,20.0118142 313.324366,21.600564 312.470924,23.5979429 C312.038184,24.6104246 311.817492,25.7016651 311.8226,26.8036571 L311.8226,39.8616 C311.837377,40.6046054 311.544873,41.3204705 311.014852,41.8384571 C310.509467,42.3663846 309.809231,42.6603715 309.080508,42.6505714 C308.341498,42.6654283 307.629481,42.3713432 307.11428,41.8384571 C306.55546,41.3314735 306.225547,40.6179399 306.200249,39.8616 L306.200249,15.8614857 C306.226947,15.0829415 306.550404,14.3445337 307.103651,13.7991429 C307.615529,13.2601301 308.328783,12.9616576 309.06988,12.9763429 C309.80045,12.9680302 310.501417,13.2661962 311.004224,13.7991429 C311.478181,14.2878048 311.921859,14.8052538 312.332757,15.3485714 L312.332757,15.3485714 Z" id="Shape" fill="#FFFFFF" fill-rule="nonzero"></path>
                            <path d="M255.482179,21.2577714 C256.319791,20.4195604 257.307982,19.748745 258.394323,19.2809143 C259.518424,18.7938466 260.730769,18.5464284 261.954791,18.5542857 C263.044578,18.5393923 264.127051,18.7352905 265.14327,19.1313143 C266.158649,19.5434272 267.099475,20.1210833 267.927875,20.8410286 C268.423724,21.2536065 269.048557,21.4768861 269.692167,21.4714857 C270.41891,21.4934042 271.121179,21.2063225 271.62651,20.6807429 C272.147484,20.1234609 272.423107,19.3786129 272.391107,18.6144902 C272.359106,17.8503674 272.022182,17.1314504 271.456458,16.6201714 C268.862441,14.2597277 265.474343,12.976595 261.976048,13.0297714 C258.105432,12.9581093 254.379138,14.5062237 251.687889,17.3040571 C248.907458,20.0511005 247.370558,23.8252698 247.436584,27.744 C247.370558,31.6627302 248.907458,35.4368995 251.687889,38.1839429 C257.04516,43.6504092 265.711071,43.9736244 271.456458,38.9212571 C272.007834,38.3915691 272.31901,37.657703 272.317347,36.8909714 C272.341617,36.1577407 272.064896,35.4467434 271.552112,34.9248 C271.042732,34.406475 270.342215,34.1239795 269.617769,34.1447429 C269.000876,34.1493023 268.401485,34.351427 267.906618,34.7217714 C267.093864,35.444159 266.162436,36.0190538 265.153898,36.4208 C264.135722,36.8086537 263.054142,37.0007657 261.96542,36.9871429 C260.741397,36.9950002 259.529052,36.747582 258.404952,36.2605143 C257.31861,35.7926835 256.33042,35.1218682 255.492808,34.2836571 C251.912615,30.6585206 251.912615,24.808108 255.492808,21.1829714 L255.482179,21.2577714 Z" id="Shape" fill="#FFFFFF" fill-rule="nonzero"></path>
                            <path d="M129.601036,17.3681714 C126.886844,14.6017691 123.18313,13.0444257 119.318191,13.0444257 C115.453253,13.0444257 111.749539,14.6017691 109.035347,17.3681714 C106.254915,20.1152148 104.718016,23.8893841 104.784042,27.8081143 C104.718016,31.7268445 106.254915,35.5010138 109.035347,38.2480571 C111.749539,41.0144594 115.453253,42.5718029 119.318191,42.5718029 C123.18313,42.5718029 126.886844,41.0144594 129.601036,38.2480571 C132.393234,35.5089736 133.932308,31.7294665 133.852341,27.8081143 C133.858058,25.8696623 133.497387,23.9477703 132.789514,22.1446857 C132.055135,20.3541322 130.970914,18.7299105 129.601036,17.3681714 L129.601036,17.3681714 Z M127.709205,31.3771429 C127.249165,32.4702281 126.589455,33.4669546 125.764233,34.3157143 C124.937193,35.1649941 123.955844,35.846946 122.873345,36.3246286 C120.593164,37.3084513 118.011334,37.3084513 115.731153,36.3246286 C114.653543,35.8532859 113.675808,35.1785932 112.850894,34.3370857 C112.021855,33.4832793 111.361814,32.4788002 110.905921,31.3771429 C109.953508,29.0830158 109.953508,26.5011557 110.905921,24.2070286 C111.360991,23.1138267 112.017267,22.1168404 112.840265,21.2684571 C113.66501,20.4267458 114.642786,19.7520244 115.720524,19.2809143 C118.000706,18.2970916 120.582536,18.2970916 122.862717,19.2809143 C123.945344,19.7583646 124.926735,20.4403454 125.753605,21.2898286 C126.578826,22.1385883 127.238536,23.1353148 127.698577,24.2284 C128.651008,26.5151128 128.651008,29.09043 127.698577,31.3771429 L127.709205,31.3771429 Z" id="Shape" fill="#FFFFFF" fill-rule="nonzero"></path>
                            <path d="M98.9491259,0.388571429 C98.2244499,0.366507522 97.5234353,0.649203633 97.0147821,1.16862857 C96.5019981,1.69057199 96.2252776,2.40156922 96.2495472,3.1348 L96.2495472,16.2889143 C90.4690207,11.5765673 82.0764675,12.0386659 76.8423395,17.3574857 C74.0619076,20.1045291 72.5250079,23.8786984 72.5910344,27.7974286 C72.5250079,31.7161588 74.0619076,35.490328 76.8423395,38.2373714 C79.558358,41.0044076 83.2638278,42.5620035 87.1304978,42.5620035 C90.9971678,42.5620035 94.7026376,41.0044076 97.4186561,38.2373714 C100.209776,35.497557 101.74865,31.7185414 101.669961,27.7974286 L101.669961,3.1348 C101.693816,2.3974884 101.408425,1.68402994 100.88347,1.16862857 C100.370566,0.655660419 99.6724368,0.374128073 98.9491259,0.388571429 L98.9491259,0.388571429 Z M95.5268253,31.3771429 C95.0663422,32.4699883 94.406684,33.4666363 93.5818532,34.3157143 C92.7515015,35.1659146 91.7664959,35.8479001 90.6803375,36.3246286 C88.4001564,37.3084513 85.8183261,37.3084513 83.538145,36.3246286 C82.4605351,35.8532859 81.4828002,35.1785932 80.6578858,34.3370857 C79.833257,33.4818777 79.1769421,32.4775813 78.723542,31.3771429 C77.7723123,29.0827776 77.7723123,26.5013939 78.723542,24.2070286 C79.1792862,23.1141893 79.8354831,22.1173235 80.6578858,21.2684571 C81.4826304,20.4267458 82.4604069,19.7520244 83.538145,19.2809143 C85.8183261,18.2970916 88.4001564,18.2970916 90.6803375,19.2809143 C91.766754,19.757176 92.7518432,20.4392194 93.5818532,21.2898286 C94.4064891,22.1390652 95.0661214,23.1356741 95.5268253,24.2284 C96.4804507,26.5148715 96.4804507,29.0906714 95.5268253,31.3771429 L95.5268253,31.3771429 Z" id="Shape" fill="#FFFFFF" fill-rule="nonzero"></path>
                            <path d="M246.830773,17.8169714 C246.97874,17.4804131 247.054778,17.1163705 247.053967,16.7484 C247.082491,16.0574016 246.820123,15.3862988 246.331245,14.8997714 C245.802436,14.4196384 245.17982,14.0556958 244.503184,13.8312 C243.723688,13.5485035 242.913983,13.3584315 242.090568,13.2648571 C241.276073,13.1625698 240.456252,13.1090469 239.63544,13.1045714 C237.97244,13.0934798 236.320687,13.3793051 234.757067,13.9487429 C233.216655,14.5161376 231.780173,15.3357473 230.505762,16.3744 L230.505762,15.8508 C230.515346,15.1234248 230.227116,14.4240693 229.708642,13.9166857 C229.209451,13.3938243 228.516323,13.1034596 227.795555,13.1152571 C227.070259,13.112403 226.37385,13.4008204 225.860985,13.9164581 C225.348119,14.4320959 225.061253,15.1322694 225.064091,15.8614857 L225.064091,39.9043429 C225.061253,40.6335592 225.348119,41.3337327 225.860985,41.8493704 C226.37385,42.3650082 227.070259,42.6534255 227.795555,42.6505714 C228.516323,42.662369 229.209451,42.3720042 229.708642,41.8491429 C230.226061,41.3410404 230.514095,40.6421614 230.505762,39.9150286 L230.505762,27.8081143 C230.496872,26.568079 230.739156,25.3392033 231.217855,24.1963429 C231.673579,23.1009277 232.333801,22.1034275 233.162828,21.2577714 C233.991136,20.4181471 234.972676,19.746947 236.053715,19.2809143 C237.177723,18.7935491 238.39013,18.5461181 239.614183,18.5542857 C240.832342,18.5428171 242.041261,18.7677666 243.174651,19.2168 C243.533287,19.3917989 243.92415,19.4900429 244.322503,19.5053143 C244.687535,19.5073463 245.049155,19.4346312 245.38533,19.2916 C245.710347,19.1541032 246.003479,18.9503483 246.246219,18.6932 C246.490122,18.4374048 246.687921,18.1409111 246.830773,17.8169714 Z" id="Shape" fill="#FFFFFF" fill-rule="nonzero"></path>
                            <path d="M217.879386,17.3681714 C215.163771,14.6044403 211.460589,13.0489504 207.596542,13.0489504 C203.732494,13.0489504 200.029313,14.6044403 197.313697,17.3681714 C194.533265,20.1152148 192.996366,23.8893841 193.062392,27.8081143 C192.996366,31.7268445 194.533265,35.5010138 197.313697,38.2480571 C202.680474,43.7120981 211.349233,44.0350721 217.103523,38.9853714 C217.614517,38.4571446 217.893923,37.7452338 217.879386,37.0085143 C217.903655,36.2752835 217.626935,35.5642863 217.114151,35.0423429 C216.605498,34.5229179 215.904483,34.2402218 215.179807,34.2622857 C214.519877,34.2716176 213.884165,34.513662 213.383631,34.9461714 C212.603438,35.6293044 211.706889,36.1650739 210.737193,36.5276571 C209.714178,36.8929422 208.634166,37.0702977 207.548714,37.0512571 C206.562335,37.05696 205.581849,36.8980787 204.647199,36.5810857 C202.810048,35.9637232 201.214124,34.7780764 200.087674,33.1937143 C199.499946,32.3939604 199.047483,31.5021947 198.748513,30.5543429 L219.367343,30.5543429 C220.090653,30.5687862 220.788782,30.2872539 221.301686,29.7742857 C221.830546,29.2607366 222.119892,28.5470376 222.098806,27.8081143 C222.115747,25.8617087 221.754724,23.9306856 221.03598,22.1233143 C220.311627,20.3414614 219.238132,18.7243313 217.879386,17.3681714 L217.879386,17.3681714 Z M198.748513,25.0725714 C199.018018,24.1217123 199.449546,23.2250664 200.023904,22.4225143 C200.587163,21.6339464 201.272526,20.9412706 202.053903,20.3708571 C202.837916,19.7954292 203.705442,19.3449045 204.625942,19.0351429 C205.554116,18.7216046 206.527042,18.562785 207.506201,18.5649714 C208.481964,18.5618251 209.451549,18.7206855 210.375832,19.0351429 C211.286057,19.3458713 212.142929,19.7964488 212.915987,20.3708571 C213.693339,20.9459817 214.37802,21.6379678 214.945985,22.4225143 C215.525878,23.2262715 215.967752,24.1220201 216.253262,25.0725714 L198.748513,25.0725714 Z" id="Shape" fill="#FFFFFF" fill-rule="nonzero"></path>
                            <path d="M298.919889,17.3681714 C296.205697,14.6017691 292.501983,13.0444257 288.637045,13.0444257 C284.772107,13.0444257 281.068392,14.6017691 278.354201,17.3681714 C275.573769,20.1152148 274.036869,23.8893841 274.102896,27.8081143 C274.036869,31.7268445 275.573769,35.5010138 278.354201,38.2480571 C281.068392,41.0144594 284.772107,42.5718029 288.637045,42.5718029 C292.501983,42.5718029 296.205697,41.0144594 298.919889,38.2480571 C301.712088,35.5089736 303.251161,31.7294665 303.171194,27.8081143 C303.17717,25.8696384 302.816489,23.9476979 302.108368,22.1446857 C301.373988,20.3541322 300.289767,18.7299105 298.919889,17.3681714 L298.919889,17.3681714 Z M297.038686,31.3771429 C296.578869,32.4703484 295.919133,33.4671143 295.093714,34.3157143 C294.266674,35.1649941 293.285325,35.846946 292.202827,36.3246286 C289.922646,37.3084513 287.340816,37.3084513 285.060634,36.3246286 C283.983025,35.8532859 283.00529,35.1785932 282.180375,34.3370857 C281.34753,33.4841978 280.683842,32.4796582 280.224775,31.3771429 C279.272362,29.0830158 279.272362,26.5011557 280.224775,24.2070286 C280.679844,23.1138267 281.33612,22.1168404 282.159119,21.2684571 C282.983863,20.4267458 283.96164,19.7520244 285.039378,19.2809143 C287.319559,18.2970916 289.901389,18.2970916 292.18157,19.2809143 C293.264198,19.7583646 294.245588,20.4403454 295.072458,21.2898286 C295.89768,22.1385883 296.55739,23.1353148 297.01743,24.2284 C297.969861,26.5151128 297.969861,29.09043 297.01743,31.3771429 L297.038686,31.3771429 Z" id="Shape" fill="#FFFFFF" fill-rule="nonzero"></path>
                            <path d="M190.065222,15.7866857 C190.067647,15.4185503 189.991539,15.0541708 189.842029,14.7181143 C189.700062,14.390492 189.502234,14.0903378 189.257474,13.8312 C189.014335,13.5745207 188.721307,13.3708379 188.396585,13.2328 C188.060323,13.0900544 187.698761,13.0173511 187.333759,13.0190857 C186.817055,13.0137672 186.310369,13.1625042 185.877687,13.4465143 L170.349795,23.7048 L170.349795,3.15617143 C170.364402,2.41844255 170.076072,1.70724828 169.552675,1.19 C169.054231,0.666042373 168.360604,0.375468537 167.639588,0.388571429 C166.911967,0.373397426 166.210982,0.663826477 165.705244,1.19 C165.181847,1.70724828 164.893517,2.41844255 164.908124,3.15617143 L164.908124,39.8081714 C164.897695,40.5419751 165.185603,41.2482697 165.705244,41.7636571 C166.20576,42.2999173 166.908248,42.59873 167.639588,42.5864571 C168.364088,42.5953521 169.058715,42.2965998 169.552675,41.7636571 C170.071273,41.2475673 170.358991,40.5417395 170.349795,39.8081714 L170.349795,30.3085714 L173.538274,28.1714286 L185.537582,41.8598286 C186.02172,42.3364561 186.677692,42.5948635 187.355015,42.5757714 C187.720018,42.577506 188.08158,42.5048028 188.417842,42.3620571 C188.74271,42.2242886 189.035791,42.02057 189.278731,41.7636571 C189.523491,41.5045193 189.721319,41.2043651 189.863285,40.8767429 C190.012796,40.5406863 190.088904,40.1763069 190.086479,39.8081714 C190.088265,39.0937084 189.818301,38.4055913 189.331872,37.8847429 L178.140311,25.1473714 L189.023652,17.9772571 C189.728724,17.4810811 190.123909,16.6499493 190.065222,15.7866857 Z" id="Shape" fill="#FFFFFF" fill-rule="nonzero"></path>
                            <path d="M144.969504,21.2577714 C145.807116,20.4195604 146.795306,19.748745 147.881647,19.2809143 C149.005748,18.7938466 150.218093,18.5464284 151.442115,18.5542857 C152.531902,18.5393923 153.614375,18.7352905 154.630594,19.1313143 C155.645973,19.5434272 156.586799,20.1210833 157.415199,20.8410286 C157.911049,21.2536065 158.535881,21.4768861 159.179491,21.4714857 C159.906234,21.4934042 160.608504,21.2063225 161.113835,20.6807429 C161.625078,20.1534422 161.901279,19.4399228 161.879069,18.7038857 C161.890577,17.9041294 161.547871,17.1406186 160.943782,16.6201714 C158.349765,14.2597277 154.961668,12.976595 151.463372,13.0297714 C147.592757,12.9581093 143.866462,14.5062237 141.175214,17.3040571 C138.394782,20.0511005 136.857882,23.8252698 136.923909,27.744 C136.857882,31.6627302 138.394782,35.4368995 141.175214,38.1839429 C146.532484,43.6504092 155.198395,43.9736244 160.943782,38.9212571 C161.495158,38.3915691 161.806335,37.657703 161.804672,36.8909714 C161.828941,36.1577407 161.552221,35.4467434 161.039437,34.9248 C160.530056,34.406475 159.829539,34.1239795 159.105093,34.1447429 C158.488077,34.1485567 157.888461,34.3507573 157.393943,34.7217714 C156.581318,35.4443341 155.649857,36.0192486 154.641223,36.4208 C153.623046,36.8086537 152.541466,37.0007657 151.452744,36.9871429 C150.228721,36.9950002 149.016376,36.747582 147.892276,36.2605143 C146.805934,35.7926835 145.817744,35.1218682 144.980132,34.2836571 C141.399939,30.6585206 141.399939,24.808108 144.980132,21.1829714 L144.969504,21.2577714 Z" id="Shape" fill="#FFFFFF" fill-rule="nonzero"></path>
                            <path d="M38.5593371,22.2622286 L45.5952471,22.2622286 L45.5952471,15.8508 L38.5593371,15.8508 L38.5593371,22.2622286 Z M30.2374074,22.2622286 L37.2733174,22.2622286 L37.2733174,15.8508 L30.2480357,15.8508 L30.2480357,22.2622286 L30.2374074,22.2622286 Z M21.9154777,22.2622286 L28.9513876,22.2622286 L28.9513876,15.8508 L21.926106,15.8508 L21.926106,22.2622286 L21.9154777,22.2622286 Z M13.593548,22.2622286 L20.6294579,22.2622286 L20.6294579,15.8508 L13.6041763,15.8508 L13.6041763,22.2622286 L13.593548,22.2622286 Z M5.31413136,22.2622286 L12.3500413,22.2622286 L12.3500413,15.8508 L5.31413136,15.8508 L5.31413136,22.2622286 Z M13.6360611,14.5364571 L20.671971,14.5364571 L20.671971,8.12502857 L13.6041763,8.12502857 L13.6041763,14.5364571 L13.6360611,14.5364571 Z M21.9579908,14.5364571 L28.9939007,14.5364571 L28.9939007,8.12502857 L21.926106,8.12502857 L21.926106,14.5364571 L21.9579908,14.5364571 Z M30.2799205,14.5364571 L37.3158304,14.5364571 L37.3158304,8.12502857 L30.2480357,8.12502857 L30.2480357,14.5364571 L30.2799205,14.5364571 Z M30.2799205,6.81068571 L37.3158304,6.81068571 L37.3158304,0.388571429 L30.2480357,0.388571429 L30.2480357,6.8 L30.2799205,6.81068571 Z M66.7667464,18.5542857 C65.2256483,17.4857143 61.6970651,17.1437714 58.9762298,17.6566857 C58.5053673,14.8776798 56.9278772,12.4118281 54.6080139,10.8285143 L53.1413136,9.792 L52.0784873,11.2986857 C50.752295,13.4436167 50.1554711,15.9638267 50.3779653,18.4794857 C50.5094888,19.8783086 50.9605064,21.2277047 51.6958699,22.4225143 C50.0990753,23.2290691 48.3272711,23.622075 46.5411625,23.5658857 L0.265706568,23.5658857 L0.170052204,24.1001714 C-0.533187281,30.1220531 1.18474246,36.1769264 4.94214216,40.9194857 C8.8958559,45.6212 14.8264265,48.0148 22.5638018,48.0148 C39.3352003,48.0148 51.7383829,40.2569714 57.5520426,26.1411429 C59.8371191,26.1411429 64.7580048,26.1411429 67.2875313,21.3005143 C67.3513009,21.1936571 67.5000965,20.8944571 67.9464836,19.9754857 L68.1909336,19.4732571 L66.7667464,18.5542857 Z" id="Shape" fill="#00ACC8"></path>
                        </g>
                    </g>
                </g>
            </g>
        </g>
    </g>
</svg>